<svg width="40" height="51" viewBox="0 0 40 51" fill="none" xmlns="http://www.w3.org/2000/svg">
<path d="M15.3848 1.04406C15.3848 0.962632 15.3848 0.962632 15.3848 1.04406C15.1526 0.799765 14.572 0.799765 14.4559 1.04406L6.56048 9.9203C-2.14772 19.6109 -2.14774 31.663 6.32825 41.3536L14.4559 50.637C14.572 50.7998 14.6881 50.7998 14.9203 50.7998C15.1526 50.7998 15.2687 50.7184 15.3848 50.637L23.5124 41.3536C32.1045 31.5816 31.9884 19.5294 23.2802 9.9203L15.3848 1.04406ZM14.9203 1.93983L22.4675 10.3275C22.8158 10.6532 23.048 11.0604 23.3964 11.3861H6.56048C6.90881 11.0604 7.14102 10.6532 7.48935 10.3275L14.9203 1.93983ZM14.9203 49.7412L7.25711 40.9464C7.02489 40.7021 6.90878 40.4578 6.67657 40.2135H23.1641C22.9319 40.4578 22.8158 40.7021 22.5836 40.9464L14.9203 49.7412ZM23.7447 39.3992H5.86382C-0.754417 30.8487 -0.754424 20.6695 5.7477 12.119H23.8608C30.3629 20.7509 30.3629 30.8487 23.7447 39.3992Z" fill="#FAFFFC"/>
<path d="M17.5913 16.9233H12.018C9.81195 16.9233 8.07031 18.1448 8.07031 19.6921V31.8256C8.07031 33.3729 9.81195 34.5944 12.018 34.5944H17.5913C19.7974 34.5944 21.539 33.3729 21.539 31.8256V19.7735C21.6551 18.2263 19.7974 16.9233 17.5913 16.9233ZM20.494 31.9071C20.494 33.0471 19.2168 33.9429 17.5913 33.9429H12.018C10.3925 33.9429 9.11529 33.0471 9.11529 31.9071V19.7735C9.11529 18.6334 10.3925 17.7377 12.018 17.7377H17.5913C19.2168 17.7377 20.494 18.6334 20.494 19.7735V31.9071Z" fill="#FAFFFC"/>
<path d="M36.8644 11.4676C37.445 11.4676 38.0256 11.2233 38.2578 10.8161L39.8833 8.53597C39.8833 8.45454 39.9994 8.45454 39.9994 8.3731V1.93987C39.9994 1.2884 39.3028 0.799805 38.3739 0.799805H33.149C32.2201 0.799805 31.5234 1.2884 31.5234 1.93987V8.3731C31.5234 8.45454 31.5234 8.45454 31.6395 8.53597L33.2651 10.8161C33.4973 11.2233 34.0778 11.4676 34.6584 11.4676H35.2389V39.8064H34.6584C34.0778 39.8064 33.4973 40.0507 33.2651 40.4578L31.6395 42.738C31.6395 42.8194 31.5234 42.8194 31.5234 42.9008V49.3341C31.5234 49.9855 32.2201 50.4741 33.149 50.4741H38.3739C39.3028 50.4741 39.9994 49.9855 39.9994 49.3341V42.9008C39.9994 42.8194 39.9994 42.8194 39.8833 42.738L38.2578 40.4578C38.0256 40.0507 37.445 39.8064 36.8644 39.8064H36.2839V11.4676H36.8644ZM37.3289 40.7836L38.9544 42.9823V49.3341C38.9544 49.4969 38.7222 49.6598 38.49 49.6598H33.2651C33.0329 49.6598 32.8006 49.4969 32.8006 49.3341V42.9823L34.4262 40.7836C34.5423 40.6207 34.6584 40.6207 34.8906 40.6207H37.0967C37.0967 40.6207 37.2128 40.6207 37.3289 40.7836ZM34.3101 10.4904L32.6845 8.29167V1.93987C32.6845 1.777 32.9167 1.61414 33.149 1.61414H38.3739C38.6061 1.61414 38.8383 1.777 38.8383 1.93987V8.29167L37.2128 10.4904C37.0967 10.5718 36.9806 10.6532 36.7484 10.6532H34.5423C34.5423 10.6532 34.3101 10.5718 34.3101 10.4904Z" fill="#FAFFFC"/>
</svg>
