<svg width="30" height="34" viewBox="0 0 30 34" fill="none" xmlns="http://www.w3.org/2000/svg">
<path d="M28.3335 10.1331L18.3335 1.36648C17.4168 0.546557 16.23 0.0932617 15.0002 0.0932617C13.7703 0.0932617 12.5835 0.546557 11.6668 1.36648L1.66682 10.1331C1.13744 10.6066 0.714991 11.1874 0.427611 11.8369C0.140231 12.4864 -0.0054876 13.1896 0.00015799 13.8998V28.4665C0.00015799 29.7926 0.526942 31.0643 1.46462 32.002C2.40231 32.9397 3.67408 33.4665 5.00016 33.4665H25.0002C26.3262 33.4665 27.598 32.9397 28.5357 32.002C29.4734 31.0643 30.0002 29.7926 30.0002 28.4665V13.8831C30.0034 13.1758 29.8566 12.4757 29.5693 11.8293C29.282 11.1829 28.8608 10.6047 28.3335 10.1331ZM18.3335 30.1331H11.6668V21.7998C11.6668 21.3578 11.8424 20.9339 12.155 20.6213C12.4675 20.3087 12.8915 20.1331 13.3335 20.1331H16.6668C17.1089 20.1331 17.5328 20.3087 17.8453 20.6213C18.1579 20.9339 18.3335 21.3578 18.3335 21.7998V30.1331ZM26.6668 28.4665C26.6668 28.9085 26.4912 29.3324 26.1787 29.645C25.8661 29.9576 25.4422 30.1331 25.0002 30.1331H21.6668V21.7998C21.6668 20.4737 21.14 19.202 20.2024 18.2643C19.2647 17.3266 17.9929 16.7998 16.6668 16.7998H13.3335C12.0074 16.7998 10.7356 17.3266 9.79796 18.2643C8.86027 19.202 8.33349 20.4737 8.33349 21.7998V30.1331H5.00016C4.55813 30.1331 4.13421 29.9576 3.82165 29.645C3.50909 29.3324 3.33349 28.9085 3.33349 28.4665V13.8831C3.33379 13.6465 3.38448 13.4126 3.48219 13.1971C3.57989 12.9816 3.72238 12.7893 3.90016 12.6331L13.9002 3.88315C14.2043 3.61595 14.5953 3.46859 15.0002 3.46859C15.405 3.46859 15.796 3.61595 16.1002 3.88315L26.1002 12.6331C26.2779 12.7893 26.4204 12.9816 26.5181 13.1971C26.6158 13.4126 26.6665 13.6465 26.6668 13.8831V28.4665Z" fill="#00493E"/>
</svg>
