<svg width="40" height="41" viewBox="0 0 40 41" fill="none" xmlns="http://www.w3.org/2000/svg">
<path d="M39.7444 0.850161C39.6805 0.783019 39.5527 0.783019 39.4249 0.850161L26.4537 6.69154L13.4824 0.850161H13.4185H13.3546H13.2907H13.2268L0.191695 6.69154C0.0638997 6.75868 0 6.89297 0 6.96011V40.4641C0 40.5984 0.0638958 40.6655 0.127794 40.7327C0.191691 40.7998 0.255591 40.7998 0.319489 40.7998C0.383387 40.7998 0.383385 40.7998 0.447282 40.7998L13.4185 35.0256L26.3898 40.7998C26.4537 40.7998 26.4537 40.7998 26.5176 40.7998C26.5176 40.7998 26.5176 40.7998 26.5815 40.7998C26.5815 40.7998 26.5815 40.7998 26.6454 40.7998C26.7093 40.7998 26.7093 40.7998 26.7732 40.7998L39.8083 34.9584C39.9361 34.8913 40 34.757 40 34.6899V1.11873C39.9361 0.984446 39.8722 0.917304 39.7444 0.850161ZM26.1342 39.9941L13.6741 34.4213V33.0784C13.6741 32.877 13.5463 32.7427 13.3546 32.7427C13.1629 32.7427 13.0351 32.877 13.0351 33.0784V34.4213L0.638978 39.9941V7.16153L13.099 1.58873V6.69154C13.099 6.89297 13.2268 7.02725 13.4185 7.02725C13.6102 7.02725 13.738 6.89297 13.738 6.69154V1.58873L26.1981 7.16153V39.9941H26.1342ZM39.2971 34.4213L26.8371 39.9941V7.16153L39.2971 1.58873V34.4213Z" fill="#FAFFFC"/>
<path d="M13.4171 29.3857C13.2255 29.3857 13.0977 29.52 13.0977 29.7215V32.1386C13.0977 32.34 13.2255 32.4743 13.4171 32.4743C13.6088 32.4743 13.7366 32.34 13.7366 32.1386V29.7215C13.7366 29.52 13.5449 29.3857 13.4171 29.3857Z" fill="#FAFFFC"/>
<path d="M9.83984 14.9499C9.83984 16.9642 11.4373 18.5756 13.4181 18.5756C15.399 18.5756 16.9964 16.9642 16.9964 14.9499C16.9964 12.9356 15.399 11.3242 13.4181 11.3242C11.4373 11.3242 9.83984 13.0028 9.83984 14.9499ZM16.2935 14.9499C16.2935 16.5613 14.9517 17.9042 13.3542 17.9042C11.7568 17.9042 10.4149 16.5613 10.4149 14.9499C10.4149 13.3385 11.7568 11.9956 13.3542 11.9956C15.0156 11.9956 16.2935 13.3385 16.2935 14.9499Z" fill="#FAFFFC"/>
<path d="M5.94141 14.9501C5.94141 18.9786 12.8424 28.2443 13.098 28.6471C13.1619 28.7143 13.2258 28.7814 13.3535 28.7814C13.4813 28.7814 13.5452 28.7143 13.6091 28.6471C13.9286 28.2443 20.7657 19.0458 20.7657 14.9501C20.7657 10.7873 17.443 7.43018 13.3535 7.43018C9.26409 7.43018 5.94141 10.7873 5.94141 14.9501ZM20.1906 14.9501C20.1906 18.3744 14.6315 26.1629 13.3535 27.9086C12.1395 26.23 6.5165 18.3744 6.5165 14.9501C6.5165 11.123 9.58358 8.03446 13.3535 8.03446C17.1235 8.1016 20.1906 11.1901 20.1906 14.9501Z" fill="#FAFFFC"/>
</svg>
