<svg width="30" height="38" viewBox="0 0 30 38" fill="none" xmlns="http://www.w3.org/2000/svg">
<path fill-rule="evenodd" clip-rule="evenodd" d="M0 33.7998C0 35.8711 1.67875 37.5498 3.75 37.5498H26.25C28.3212 37.5498 30 35.8711 30 33.7998C30 30.8823 30 26.1123 30 23.3861C30 21.5736 28.7038 20.0211 26.9213 19.6973C24.2788 19.2161 19.7225 18.3873 17.145 17.9198C15.7263 17.6611 14.2737 17.6611 12.855 17.9198C10.2775 18.3873 5.72125 19.2161 3.07875 19.6973C1.29625 20.0211 0 21.5736 0 23.3861V33.7998ZM17.885 20.5948L19.7612 27.7286C20.0075 28.6648 19.6775 29.6586 18.92 30.2636C18.28 30.7736 17.2713 31.5786 16.5713 32.1386C15.6525 32.8711 14.3475 32.8711 13.4287 32.1386C12.7287 31.5786 11.72 30.7736 11.08 30.2636C10.3225 29.6586 9.9925 28.6648 10.2388 27.7286L12.115 20.5948L3.52625 22.1561C2.9325 22.2648 2.5 22.7823 2.5 23.3861V33.7998C2.5 34.4898 3.06 35.0498 3.75 35.0498C8.98 35.0498 21.02 35.0498 26.25 35.0498C26.94 35.0498 27.5 34.4898 27.5 33.7998C27.5 30.8823 27.5 26.1123 27.5 23.3861C27.5 22.7823 27.0675 22.2648 26.4738 22.1561L17.885 20.5948ZM15.2038 20.2286C15.0675 20.2248 14.9325 20.2248 14.7962 20.2286L12.6663 28.3311L14.9887 30.1835C14.995 30.1898 15.005 30.1898 15.0113 30.1835L17.3337 28.3311L15.2038 20.2286ZM15 0.0498047C10.5163 0.0498047 6.875 3.69105 6.875 8.1748C6.875 12.6586 10.5163 16.2998 15 16.2998C19.4837 16.2998 23.125 12.6586 23.125 8.1748C23.125 3.69105 19.4837 0.0498047 15 0.0498047ZM15 2.5498C18.105 2.5498 20.625 5.0698 20.625 8.1748C20.625 11.2798 18.105 13.7998 15 13.7998C11.895 13.7998 9.375 11.2798 9.375 8.1748C9.375 5.0698 11.895 2.5498 15 2.5498Z" fill="white"/>
</svg>
