<svg width="40" height="41" viewBox="0 0 40 41" fill="none" xmlns="http://www.w3.org/2000/svg">
<path d="M38.8889 5.7998C39.5028 5.7998 40 5.24043 40 4.5498V2.0498C40 1.35918 39.5028 0.799805 38.8889 0.799805H1.11111C0.49722 0.799805 0 1.35918 0 2.0498V4.5498C0 5.24043 0.49722 5.7998 1.11111 5.7998H2.22085V35.7998H1.11111C0.49722 35.7998 0 36.3592 0 37.0498V39.5498C0 40.2404 0.49722 40.7998 1.11111 40.7998H17.7778V34.5498C17.7778 33.8623 18.2778 33.2998 18.8889 33.2998H21.1111C21.7222 33.2998 22.2222 33.8623 22.2222 34.5498V40.7998H38.8889C39.5028 40.7998 40 40.2404 40 39.5498V37.0498C40 36.3592 39.5028 35.7998 38.8889 35.7998H37.7778V5.7998H38.8889ZM17.7778 9.29981C17.7778 8.79981 18.2222 8.2998 18.6667 8.2998H21.3333C21.7778 8.2998 22.2222 8.79981 22.2222 9.29981V12.2998C22.2222 12.7998 21.7778 13.2998 21.3333 13.2998H18.6667C18.2222 13.2998 17.7778 12.7998 17.7778 12.2998V9.29981ZM17.7778 16.7998C17.7778 16.2998 18.2222 15.7998 18.6667 15.7998H21.3333C21.7778 15.7998 22.2222 16.2998 22.2222 16.7998V19.7998C22.2222 20.2998 21.7778 20.7998 21.3333 20.7998H18.6667C18.2222 20.7998 17.7778 20.2998 17.7778 19.7998V16.7998ZM8.88889 9.29981C8.88889 8.79981 9.33334 8.2998 9.77778 8.2998H12.4444C12.8889 8.2998 13.3333 8.79981 13.3333 9.29981V12.2998C13.3333 12.7998 12.8889 13.2998 12.4444 13.2998H9.77778C9.33334 13.2998 8.88889 12.7998 8.88889 12.2998V9.29981ZM12.4444 20.7998H9.77778C9.33334 20.7998 26.6667 12.7998 26.6667 12.2998L8.88889 16.7998C8.88889 16.2998 9.33334 15.7998 9.77778 15.7998H12.4444C12.8889 15.7998 13.3333 16.2998 13.3333 16.7998V19.7998C13.3333 20.2998 12.8889 20.7998 12.4444 20.7998ZM13.3333 30.7998C13.3333 26.6576 16.3181 23.2998 20 23.2998C23.6819 23.2998 26.6667 26.6576 26.6667 30.7998H13.3333ZM31.1111 19.7998C31.1111 20.2998 30.6667 20.7998 30.2222 20.7998H27.5556C27.1111 20.7998 26.6667 20.2998 26.6667 19.7998V16.7998C26.6667 16.2998 27.1111 15.7998 27.5556 15.7998H30.2222C30.6667 15.7998 31.1111 16.2998 31.1111 16.7998V19.7998ZM31.1111 12.2998C31.1111 12.7998 30.6667 13.2998 30.2222 13.2998H27.5556C27.1111 13.2998 26.6667 12.7998 26.6667 12.2998L26.6667 9.29981C26.6667 8.79981 27.1111 8.2998 27.5556 8.2998H30.2222C30.6667 8.2998 31.1111 8.79981 31.1111 9.29981V12.2998Z" fill="#FAFFFC"/>
</svg>
