<svg width="30" height="38" viewBox="0 0 30 38" fill="none" xmlns="http://www.w3.org/2000/svg">
<path fill-rule="evenodd" clip-rule="evenodd" d="M12.9288 37.5498H3.75C1.67875 37.5498 0 35.8711 0 33.7998V23.3861C0 21.5736 1.29625 20.0211 3.07875 19.6973C5.72125 19.2161 10.2775 18.3873 12.855 17.9198C14.2737 17.6611 15.7263 17.6611 17.145 17.9198C19.7225 18.3873 24.2788 19.2161 26.9213 19.6973C28.7038 20.0211 30 21.5736 30 23.3861C30 26.1123 30 30.8823 30 33.7998C30 35.8711 28.3212 37.5498 26.25 37.5498H12.9288ZM24.785 21.8498L24.79 21.8561C25.0088 22.1836 25.06 22.5948 24.9287 22.966L24.0462 25.466C23.9312 25.7923 23.685 26.0573 23.3675 26.1961L21.7075 26.9198L22.3675 28.241C22.5525 28.6098 22.5425 29.046 22.3425 29.4073L19.2075 35.0498H26.25C26.94 35.0498 27.5 34.4898 27.5 33.7998C27.5 30.8823 27.5 26.1123 27.5 23.3861C27.5 22.7823 27.0675 22.2648 26.4738 22.1561L24.785 21.8498ZM21.3663 21.2273L16.6975 20.3786C15.575 20.1748 14.425 20.1748 13.3025 20.3786L8.63375 21.2273L7.63625 22.7236L8.13 24.1211L10.5 25.1535C10.8138 25.291 11.0575 25.5511 11.175 25.8736C11.2925 26.1961 11.2712 26.5523 11.1175 26.8586L10.1625 28.7686L13.6525 35.0498H16.3475L19.8375 28.7686L18.8825 26.8586C18.7288 26.5523 18.7075 26.1961 18.825 25.8736C18.9425 25.5511 19.1862 25.291 19.5 25.1535L21.87 24.1211L22.3638 22.7236L21.3663 21.2273ZM5.215 21.8498L3.52625 22.1561C2.9325 22.2648 2.5 22.7823 2.5 23.3861V33.7998C2.5 34.4898 3.06 35.0498 3.75 35.0498H10.7925L7.6575 29.4073C7.4575 29.046 7.4475 28.6098 7.6325 28.241L8.2925 26.9198L6.6325 26.1961C6.315 26.0573 6.06875 25.7923 5.95375 25.466L5.07125 22.966C4.94 22.5948 4.99125 22.1836 5.21 21.8561L5.215 21.8498ZM23.75 28.7998V31.2998C23.75 31.9898 24.31 32.5498 25 32.5498C25.69 32.5498 26.25 31.9898 26.25 31.2998V28.7998C26.25 28.1098 25.69 27.5498 25 27.5498C24.31 27.5498 23.75 28.1098 23.75 28.7998ZM15 0.0498047C10.5163 0.0498047 6.875 3.69105 6.875 8.1748C6.875 12.6586 10.5163 16.2998 15 16.2998C19.4837 16.2998 23.125 12.6586 23.125 8.1748C23.125 3.69105 19.4837 0.0498047 15 0.0498047ZM15 2.5498C18.105 2.5498 20.625 5.0698 20.625 8.1748C20.625 11.2798 18.105 13.7998 15 13.7998C11.895 13.7998 9.375 11.2798 9.375 8.1748C9.375 5.0698 11.895 2.5498 15 2.5498Z" fill="#FAFFFC"/>
</svg>
